<svg width="30" height="30" viewBox="0 0 30 30" fill="none" xmlns="http://www.w3.org/2000/svg">
<path d="M29.9099 27.8436L20.1712 18.1049C21.6824 16.1512 22.4999 13.7624 22.4999 11.25C22.4999 8.24246 21.3262 5.42248 19.2037 3.29624C17.0812 1.16999 14.2537 0 11.25 0C8.24621 0 5.41873 1.17374 3.29624 3.29624C1.16999 5.41873 0 8.24246 0 11.25C0 14.2537 1.17374 17.0812 3.29624 19.2037C5.41873 21.3299 8.24246 22.4999 11.25 22.4999C13.7624 22.4999 16.1474 21.6824 18.1012 20.1749L27.8399 29.9099C27.8684 29.9384 27.9023 29.9611 27.9397 29.9766C27.977 29.992 28.017 30 28.0574 30C28.0978 30 28.1378 29.992 28.1751 29.9766C28.2124 29.9611 28.2463 29.9384 28.2749 29.9099L29.9099 28.2786C29.9384 28.2501 29.9611 28.2162 29.9766 28.1788C29.992 28.1415 30 28.1015 30 28.0611C30 28.0207 29.992 27.9807 29.9766 27.9434C29.9611 27.9061 29.9384 27.8722 29.9099 27.8436ZM17.1899 17.1899C15.5999 18.7762 13.4924 19.6499 11.25 19.6499C9.00746 19.6499 6.89997 18.7762 5.30998 17.1899C3.72373 15.5999 2.84999 13.4924 2.84999 11.25C2.84999 9.00746 3.72373 6.89622 5.30998 5.30998C6.89997 3.72373 9.00746 2.84999 11.25 2.84999C13.4924 2.84999 15.6037 3.71998 17.1899 5.30998C18.7762 6.89997 19.6499 9.00746 19.6499 11.25C19.6499 13.4924 18.7762 15.6037 17.1899 17.1899Z" fill="#FFFFF0"/>
</svg>
