<svg width="246" height="90" viewBox="0 0 246 90" fill="none" xmlns="http://www.w3.org/2000/svg">
<path d="M99.0224 36.156C99.6944 36.252 100.15 36.456 100.39 36.768C100.654 37.08 100.786 37.488 100.786 37.992C100.786 39.648 99.8984 40.416 98.1224 40.296L96.8624 40.188C95.4464 40.068 94.0304 39.972 92.6144 39.9C91.2224 39.828 89.7584 39.792 88.2224 39.792H86.6024C86.3144 43.344 86.0144 46.584 85.7024 49.512L91.8944 49.404C92.7824 49.404 93.3704 49.56 93.6584 49.872C93.9704 50.184 94.1264 50.604 94.1264 51.132C94.1264 51.948 93.8864 52.596 93.4064 53.076C92.9264 53.532 92.2424 53.76 91.3544 53.76H85.1984L84.9824 55.308C84.4784 59.268 83.3984 62.088 81.7424 63.768C80.1104 65.448 77.8544 66.288 74.9744 66.288C73.3424 66.288 71.8424 65.94 70.4744 65.244C69.1064 64.524 68.0984 63.66 67.4504 62.652C67.1864 62.244 67.0544 61.752 67.0544 61.176C67.0544 60.6 67.1864 60.096 67.4504 59.664C67.7384 59.232 68.0864 59.016 68.4944 59.016C68.7824 59.016 69.0584 59.112 69.3224 59.304C69.6104 59.496 69.9704 59.868 70.4024 60.42C71.5544 61.932 72.9824 62.688 74.6864 62.688C76.0544 62.688 77.1944 62.136 78.1064 61.032C79.0424 59.904 79.6424 58.14 79.9064 55.74L80.1224 53.76H78.3944C77.8424 53.76 77.3624 53.604 76.9544 53.292C76.5704 52.98 76.3784 52.536 76.3784 51.96C76.3784 51.216 76.5704 50.652 76.9544 50.268C77.3384 49.86 77.9024 49.656 78.6464 49.656C79.3184 49.656 79.9784 49.644 80.6264 49.62C80.9144 46.98 81.2264 43.776 81.5624 40.008C78.9704 40.248 77.1464 40.668 76.0904 41.268C75.0344 41.868 74.5064 42.756 74.5064 43.932C74.5064 44.748 74.7464 45.528 75.2264 46.272C75.3704 46.488 75.4424 46.704 75.4424 46.92C75.4424 47.352 75.2024 47.736 74.7224 48.072C74.2424 48.384 73.7024 48.54 73.1024 48.54C72.4544 48.54 71.9024 48.348 71.4464 47.964C71.1584 47.724 70.8824 47.232 70.6184 46.488C70.3544 45.744 70.2224 44.916 70.2224 44.004C70.2224 41.028 71.7464 38.868 74.7944 37.524C77.8664 36.18 82.3424 35.508 88.2224 35.508C92.3024 35.508 95.9024 35.724 99.0224 36.156ZM112.456 54.948C112.768 54.948 113.008 55.104 113.176 55.416C113.344 55.728 113.428 56.124 113.428 56.604C113.428 57.756 113.08 58.44 112.384 58.656C110.944 59.16 109.36 59.448 107.632 59.52C107.176 61.536 106.276 63.156 104.932 64.38C103.588 65.58 102.064 66.18 100.36 66.18C98.9197 66.18 97.6837 65.832 96.6517 65.136C95.6437 64.44 94.8757 63.516 94.3477 62.364C93.8197 61.212 93.5557 59.964 93.5557 58.62C93.5557 56.796 93.9037 55.176 94.5997 53.76C95.2957 52.32 96.2557 51.204 97.4797 50.412C98.7037 49.596 100.06 49.188 101.548 49.188C103.372 49.188 104.836 49.824 105.94 51.096C107.068 52.344 107.728 53.892 107.92 55.74C109.048 55.668 110.392 55.428 111.952 55.02C112.144 54.972 112.312 54.948 112.456 54.948ZM100.648 62.364C101.416 62.364 102.076 62.052 102.628 61.428C103.204 60.804 103.588 59.904 103.78 58.728C103.036 58.224 102.46 57.564 102.052 56.748C101.668 55.932 101.476 55.068 101.476 54.156C101.476 53.772 101.512 53.388 101.584 53.004H101.404C100.444 53.004 99.6397 53.472 98.9917 54.408C98.3677 55.32 98.0557 56.616 98.0557 58.296C98.0557 59.616 98.3077 60.624 98.8117 61.32C99.3397 62.016 99.9517 62.364 100.648 62.364ZM128.698 54.948C129.01 54.948 129.25 55.104 129.418 55.416C129.586 55.728 129.67 56.124 129.67 56.604C129.67 57.756 129.322 58.44 128.626 58.656C127.186 59.16 125.602 59.448 123.874 59.52C123.418 61.536 122.518 63.156 121.174 64.38C119.83 65.58 118.306 66.18 116.602 66.18C115.162 66.18 113.926 65.832 112.894 65.136C111.886 64.44 111.118 63.516 110.59 62.364C110.062 61.212 109.798 59.964 109.798 58.62C109.798 56.796 110.146 55.176 110.842 53.76C111.538 52.32 112.498 51.204 113.722 50.412C114.946 49.596 116.302 49.188 117.79 49.188C119.614 49.188 121.078 49.824 122.182 51.096C123.31 52.344 123.97 53.892 124.162 55.74C125.29 55.668 126.634 55.428 128.194 55.02C128.386 54.972 128.554 54.948 128.698 54.948ZM116.89 62.364C117.658 62.364 118.318 62.052 118.87 61.428C119.446 60.804 119.83 59.904 120.022 58.728C119.278 58.224 118.702 57.564 118.294 56.748C117.91 55.932 117.718 55.068 117.718 54.156C117.718 53.772 117.754 53.388 117.826 53.004H117.646C116.686 53.004 115.882 53.472 115.234 54.408C114.61 55.32 114.298 56.616 114.298 58.296C114.298 59.616 114.55 60.624 115.054 61.32C115.582 62.016 116.194 62.364 116.89 62.364ZM139.684 57.972C139.948 59.94 140.332 61.884 140.836 63.804C140.932 64.116 140.98 64.44 140.98 64.776C140.98 65.856 140.32 66.396 139 66.396C138.256 66.396 137.68 66.192 137.272 65.784C136.888 65.376 136.528 64.608 136.192 63.48L136.156 63.336C135.244 64.464 134.416 65.22 133.672 65.604C132.952 65.988 132.112 66.18 131.152 66.18C129.688 66.18 128.476 65.64 127.516 64.56C126.58 63.456 126.112 62.028 126.112 60.276C126.112 58.356 126.52 56.58 127.336 54.948C128.152 53.316 129.268 51.984 130.684 50.952C132.1 49.896 133.684 49.26 135.436 49.044C135.892 44.508 136.756 40.56 138.028 37.2C139.324 33.84 141.04 32.16 143.176 32.16C144.208 32.16 145.06 32.628 145.732 33.564C146.428 34.5 146.776 35.916 146.776 37.812C146.776 40.452 146.128 43.536 144.832 47.064C143.536 50.592 141.82 54.228 139.684 57.972ZM142.78 35.688C142.084 35.688 141.424 37.464 140.8 41.016C140.2 44.568 139.792 48.432 139.576 52.608C142.24 46.848 143.572 42.168 143.572 38.568C143.572 37.656 143.488 36.948 143.32 36.444C143.176 35.94 142.996 35.688 142.78 35.688ZM132.412 62.544C132.892 62.544 133.348 62.364 133.78 62.004C134.236 61.644 134.812 60.948 135.508 59.916C135.268 58.164 135.148 56.352 135.148 54.48C135.148 53.736 135.16 53.16 135.184 52.752C133.864 53.136 132.772 54.012 131.908 55.38C131.044 56.748 130.612 58.26 130.612 59.916C130.612 61.668 131.212 62.544 132.412 62.544ZM187.197 57.972C187.509 57.972 187.749 58.116 187.917 58.404C188.109 58.692 188.205 59.088 188.205 59.592C188.205 60.528 187.977 61.272 187.521 61.824C185.145 64.728 182.613 66.18 179.925 66.18C177.597 66.18 175.737 65.28 174.345 63.48C172.953 61.68 172.257 59.1 172.257 55.74C172.257 54.924 172.293 54.108 172.365 53.292C170.781 53.58 169.053 53.796 167.181 53.94C165.933 54.036 165.081 54.096 164.625 54.12C164.145 56.568 163.473 59.568 162.609 63.12C162.105 65.208 161.145 66.252 159.729 66.252C158.193 66.252 157.425 65.556 157.425 64.164C157.425 63.852 157.485 63.42 157.605 62.868C158.421 59.58 159.069 56.796 159.549 54.516L157.821 54.588C157.029 54.588 156.453 54.456 156.093 54.192C155.733 53.904 155.553 53.448 155.553 52.824C155.553 52.032 155.781 51.456 156.237 51.096C156.693 50.712 157.449 50.496 158.505 50.448L160.413 50.376C161.037 46.992 161.349 44.412 161.349 42.636C161.349 41.508 161.181 40.74 160.845 40.332C160.509 39.924 160.065 39.72 159.513 39.72C157.833 39.72 155.937 41.124 153.825 43.932C153.513 44.34 153.165 44.544 152.781 44.544C152.445 44.544 152.157 44.388 151.917 44.076C151.677 43.764 151.557 43.368 151.557 42.888C151.557 42.144 151.857 41.352 152.457 40.512C153.513 39.048 154.845 37.848 156.453 36.912C158.061 35.952 159.693 35.472 161.349 35.472C162.909 35.472 164.109 36.012 164.949 37.092C165.813 38.148 166.245 39.804 166.245 42.06C166.245 44.052 165.957 46.752 165.381 50.16L168.909 49.98C170.421 49.908 171.717 49.788 172.797 49.62C173.229 46.98 173.889 44.508 174.777 42.204C175.665 39.9 176.769 38.028 178.089 36.588C179.409 35.148 180.885 34.428 182.517 34.428C183.717 34.428 184.665 34.908 185.361 35.868C186.057 36.804 186.405 38.04 186.405 39.576C186.405 45.528 183.369 49.656 177.297 51.96C177.225 52.92 177.189 53.916 177.189 54.948C177.189 57.468 177.501 59.256 178.125 60.312C178.749 61.368 179.625 61.896 180.753 61.896C181.737 61.896 182.637 61.644 183.453 61.14C184.269 60.612 185.193 59.724 186.225 58.476C186.513 58.14 186.837 57.972 187.197 57.972ZM182.337 37.56C181.809 37.56 181.245 38.04 180.645 39C180.069 39.96 179.517 41.268 178.989 42.924C178.461 44.58 178.041 46.392 177.729 48.36C179.649 47.568 181.065 46.44 181.977 44.976C182.889 43.512 183.345 41.628 183.345 39.324C183.345 38.772 183.249 38.34 183.057 38.028C182.865 37.716 182.625 37.56 182.337 37.56ZM206.023 57.972C206.335 57.972 206.575 58.116 206.743 58.404C206.935 58.692 207.031 59.088 207.031 59.592C207.031 60.552 206.803 61.296 206.347 61.824C205.459 62.904 204.199 63.9 202.567 64.812C200.959 65.724 199.231 66.18 197.383 66.18C194.863 66.18 192.907 65.496 191.515 64.128C190.123 62.76 189.427 60.888 189.427 58.512C189.427 56.856 189.775 55.32 190.471 53.904C191.167 52.464 192.127 51.324 193.351 50.484C194.599 49.644 196.003 49.224 197.563 49.224C198.955 49.224 200.071 49.644 200.911 50.484C201.751 51.3 202.171 52.416 202.171 53.832C202.171 55.488 201.571 56.916 200.371 58.116C199.195 59.292 197.191 60.228 194.359 60.924C194.959 62.028 196.099 62.58 197.779 62.58C198.859 62.58 200.083 62.208 201.451 61.464C202.843 60.696 204.043 59.7 205.051 58.476C205.339 58.14 205.663 57.972 206.023 57.972ZM196.951 52.752C196.063 52.752 195.307 53.268 194.683 54.3C194.083 55.332 193.783 56.58 193.783 58.044V58.116C195.199 57.78 196.315 57.276 197.131 56.604C197.947 55.932 198.355 55.152 198.355 54.264C198.355 53.808 198.223 53.448 197.959 53.184C197.719 52.896 197.383 52.752 196.951 52.752ZM206.656 66.18C205.744 66.18 205.096 65.7 204.712 64.74C204.352 63.78 204.172 62.244 204.172 60.132C204.172 57.012 204.616 54.048 205.504 51.24C205.72 50.544 206.068 50.04 206.548 49.728C207.052 49.392 207.748 49.224 208.636 49.224C209.116 49.224 209.452 49.284 209.644 49.404C209.836 49.524 209.932 49.752 209.932 50.088C209.932 50.472 209.752 51.336 209.392 52.68C209.152 53.64 208.96 54.48 208.816 55.2C208.672 55.92 208.552 56.808 208.456 57.864C209.248 55.8 210.136 54.12 211.12 52.824C212.104 51.528 213.064 50.604 214 50.052C214.96 49.5 215.836 49.224 216.628 49.224C218.188 49.224 218.968 50.004 218.968 51.564C218.968 51.876 218.86 52.632 218.644 53.832C218.452 54.792 218.356 55.392 218.356 55.632C218.356 56.472 218.656 56.892 219.256 56.892C219.928 56.892 220.792 56.364 221.848 55.308C222.16 54.996 222.484 54.84 222.82 54.84C223.132 54.84 223.372 54.984 223.54 55.272C223.732 55.536 223.828 55.896 223.828 56.352C223.828 57.24 223.588 57.936 223.108 58.44C222.436 59.136 221.644 59.736 220.732 60.24C219.844 60.72 218.896 60.96 217.888 60.96C216.616 60.96 215.644 60.636 214.972 59.988C214.324 59.34 214 58.464 214 57.36C214 57 214.036 56.64 214.108 56.28C214.156 55.8 214.18 55.476 214.18 55.308C214.18 54.924 214.048 54.732 213.784 54.732C213.424 54.732 212.944 55.14 212.344 55.956C211.768 56.748 211.192 57.804 210.616 59.124C210.04 60.444 209.572 61.836 209.212 63.3C208.948 64.428 208.636 65.196 208.276 65.604C207.94 65.988 207.4 66.18 206.656 66.18ZM226.566 66.18C225.15 66.18 223.938 65.832 222.93 65.136C221.946 64.416 221.202 63.48 220.698 62.328C220.194 61.176 219.942 59.94 219.942 58.62C219.942 56.796 220.278 55.176 220.95 53.76C221.646 52.32 222.582 51.204 223.758 50.412C224.934 49.596 226.254 49.188 227.718 49.188C229.134 49.188 230.346 49.548 231.354 50.268C232.362 50.964 233.118 51.888 233.622 53.04C234.126 54.192 234.378 55.428 234.378 56.748C234.378 58.572 234.03 60.204 233.334 61.644C232.638 63.06 231.69 64.176 230.49 64.992C229.314 65.784 228.006 66.18 226.566 66.18ZM226.962 62.292C227.778 62.292 228.462 61.848 229.014 60.96C229.59 60.072 229.878 58.776 229.878 57.072C229.878 55.752 229.638 54.756 229.158 54.084C228.678 53.412 228.102 53.076 227.43 53.076C226.566 53.076 225.846 53.52 225.27 54.408C224.718 55.272 224.442 56.568 224.442 58.296C224.442 59.664 224.682 60.672 225.162 61.32C225.642 61.968 226.242 62.292 226.962 62.292Z" fill="black"/>
<path d="M103.525 36.156C104.197 36.252 104.653 36.456 104.893 36.768C105.157 37.08 105.289 37.488 105.289 37.992C105.289 39.648 104.401 40.416 102.625 40.296L101.365 40.188C99.9488 40.068 98.5328 39.972 97.1168 39.9C95.7248 39.828 94.2608 39.792 92.7248 39.792H91.1048C90.8168 43.344 90.5168 46.584 90.2048 49.512L96.3968 49.404C97.2848 49.404 97.8728 49.56 98.1608 49.872C98.4728 50.184 98.6288 50.604 98.6288 51.132C98.6288 51.948 98.3888 52.596 97.9088 53.076C97.4288 53.532 96.7448 53.76 95.8568 53.76H89.7008L89.4848 55.308C88.9808 59.268 87.9008 62.088 86.2448 63.768C84.6128 65.448 82.3568 66.288 79.4768 66.288C77.8448 66.288 76.3448 65.94 74.9768 65.244C73.6088 64.524 72.6008 63.66 71.9528 62.652C71.6888 62.244 71.5568 61.752 71.5568 61.176C71.5568 60.6 71.6888 60.096 71.9528 59.664C72.2408 59.232 72.5888 59.016 72.9968 59.016C73.2848 59.016 73.5608 59.112 73.8248 59.304C74.1128 59.496 74.4728 59.868 74.9048 60.42C76.0568 61.932 77.4848 62.688 79.1888 62.688C80.5568 62.688 81.6968 62.136 82.6088 61.032C83.5448 59.904 84.1448 58.14 84.4088 55.74L84.6248 53.76H82.8968C82.3448 53.76 81.8648 53.604 81.4568 53.292C81.0728 52.98 80.8808 52.536 80.8808 51.96C80.8808 51.216 81.0728 50.652 81.4568 50.268C81.8408 49.86 82.4048 49.656 83.1488 49.656C83.8208 49.656 84.4808 49.644 85.1288 49.62C85.4168 46.98 85.7288 43.776 86.0648 40.008C83.4728 40.248 81.6488 40.668 80.5928 41.268C79.5368 41.868 79.0088 42.756 79.0088 43.932C79.0088 44.748 79.2488 45.528 79.7288 46.272C79.8728 46.488 79.9448 46.704 79.9448 46.92C79.9448 47.352 79.7048 47.736 79.2248 48.072C78.7448 48.384 78.2048 48.54 77.6048 48.54C76.9568 48.54 76.4048 48.348 75.9488 47.964C75.6608 47.724 75.3848 47.232 75.1208 46.488C74.8568 45.744 74.7248 44.916 74.7248 44.004C74.7248 41.028 76.2488 38.868 79.2968 37.524C82.3688 36.18 86.8448 35.508 92.7248 35.508C96.8048 35.508 100.405 35.724 103.525 36.156ZM116.958 54.948C117.27 54.948 117.51 55.104 117.678 55.416C117.846 55.728 117.93 56.124 117.93 56.604C117.93 57.756 117.582 58.44 116.886 58.656C115.446 59.16 113.862 59.448 112.134 59.52C111.678 61.536 110.778 63.156 109.434 64.38C108.09 65.58 106.566 66.18 104.862 66.18C103.422 66.18 102.186 65.832 101.154 65.136C100.146 64.44 99.3781 63.516 98.8501 62.364C98.3221 61.212 98.0581 59.964 98.0581 58.62C98.0581 56.796 98.4061 55.176 99.1021 53.76C99.7981 52.32 100.758 51.204 101.982 50.412C103.206 49.596 104.562 49.188 106.05 49.188C107.874 49.188 109.338 49.824 110.442 51.096C111.57 52.344 112.23 53.892 112.422 55.74C113.55 55.668 114.894 55.428 116.454 55.02C116.646 54.972 116.814 54.948 116.958 54.948ZM105.15 62.364C105.918 62.364 106.578 62.052 107.13 61.428C107.706 60.804 108.09 59.904 108.282 58.728C107.538 58.224 106.962 57.564 106.554 56.748C106.17 55.932 105.978 55.068 105.978 54.156C105.978 53.772 106.014 53.388 106.086 53.004H105.906C104.946 53.004 104.142 53.472 103.494 54.408C102.87 55.32 102.558 56.616 102.558 58.296C102.558 59.616 102.81 60.624 103.314 61.32C103.842 62.016 104.454 62.364 105.15 62.364ZM133.2 54.948C133.512 54.948 133.752 55.104 133.92 55.416C134.088 55.728 134.172 56.124 134.172 56.604C134.172 57.756 133.824 58.44 133.128 58.656C131.688 59.16 130.104 59.448 128.376 59.52C127.92 61.536 127.02 63.156 125.676 64.38C124.332 65.58 122.808 66.18 121.104 66.18C119.664 66.18 118.428 65.832 117.396 65.136C116.388 64.44 115.62 63.516 115.092 62.364C114.564 61.212 114.3 59.964 114.3 58.62C114.3 56.796 114.648 55.176 115.344 53.76C116.04 52.32 117 51.204 118.224 50.412C119.448 49.596 120.804 49.188 122.292 49.188C124.116 49.188 125.58 49.824 126.684 51.096C127.812 52.344 128.472 53.892 128.664 55.74C129.792 55.668 131.136 55.428 132.696 55.02C132.888 54.972 133.056 54.948 133.2 54.948ZM121.392 62.364C122.16 62.364 122.82 62.052 123.372 61.428C123.948 60.804 124.332 59.904 124.524 58.728C123.78 58.224 123.204 57.564 122.796 56.748C122.412 55.932 122.22 55.068 122.22 54.156C122.22 53.772 122.256 53.388 122.328 53.004H122.148C121.188 53.004 120.384 53.472 119.736 54.408C119.112 55.32 118.8 56.616 118.8 58.296C118.8 59.616 119.052 60.624 119.556 61.32C120.084 62.016 120.696 62.364 121.392 62.364ZM144.186 57.972C144.45 59.94 144.834 61.884 145.338 63.804C145.434 64.116 145.482 64.44 145.482 64.776C145.482 65.856 144.822 66.396 143.502 66.396C142.758 66.396 142.182 66.192 141.774 65.784C141.39 65.376 141.03 64.608 140.694 63.48L140.658 63.336C139.746 64.464 138.918 65.22 138.174 65.604C137.454 65.988 136.614 66.18 135.654 66.18C134.19 66.18 132.978 65.64 132.018 64.56C131.082 63.456 130.614 62.028 130.614 60.276C130.614 58.356 131.022 56.58 131.838 54.948C132.654 53.316 133.77 51.984 135.186 50.952C136.602 49.896 138.186 49.26 139.938 49.044C140.394 44.508 141.258 40.56 142.53 37.2C143.826 33.84 145.542 32.16 147.678 32.16C148.71 32.16 149.562 32.628 150.234 33.564C150.93 34.5 151.278 35.916 151.278 37.812C151.278 40.452 150.63 43.536 149.334 47.064C148.038 50.592 146.322 54.228 144.186 57.972ZM147.282 35.688C146.586 35.688 145.926 37.464 145.302 41.016C144.702 44.568 144.294 48.432 144.078 52.608C146.742 46.848 148.074 42.168 148.074 38.568C148.074 37.656 147.99 36.948 147.822 36.444C147.678 35.94 147.498 35.688 147.282 35.688ZM136.914 62.544C137.394 62.544 137.85 62.364 138.282 62.004C138.738 61.644 139.314 60.948 140.01 59.916C139.77 58.164 139.65 56.352 139.65 54.48C139.65 53.736 139.662 53.16 139.686 52.752C138.366 53.136 137.274 54.012 136.41 55.38C135.546 56.748 135.114 58.26 135.114 59.916C135.114 61.668 135.714 62.544 136.914 62.544ZM191.7 57.972C192.012 57.972 192.252 58.116 192.42 58.404C192.612 58.692 192.708 59.088 192.708 59.592C192.708 60.528 192.48 61.272 192.024 61.824C189.648 64.728 187.116 66.18 184.428 66.18C182.1 66.18 180.24 65.28 178.848 63.48C177.456 61.68 176.76 59.1 176.76 55.74C176.76 54.924 176.796 54.108 176.868 53.292C175.284 53.58 173.556 53.796 171.684 53.94C170.436 54.036 169.584 54.096 169.128 54.12C168.648 56.568 167.976 59.568 167.112 63.12C166.608 65.208 165.648 66.252 164.232 66.252C162.696 66.252 161.928 65.556 161.928 64.164C161.928 63.852 161.988 63.42 162.108 62.868C162.924 59.58 163.572 56.796 164.052 54.516L162.324 54.588C161.532 54.588 160.956 54.456 160.596 54.192C160.236 53.904 160.056 53.448 160.056 52.824C160.056 52.032 160.284 51.456 160.74 51.096C161.196 50.712 161.952 50.496 163.008 50.448L164.916 50.376C165.54 46.992 165.852 44.412 165.852 42.636C165.852 41.508 165.684 40.74 165.348 40.332C165.012 39.924 164.568 39.72 164.016 39.72C162.336 39.72 160.44 41.124 158.328 43.932C158.016 44.34 157.668 44.544 157.284 44.544C156.948 44.544 156.66 44.388 156.42 44.076C156.18 43.764 156.06 43.368 156.06 42.888C156.06 42.144 156.36 41.352 156.96 40.512C158.016 39.048 159.348 37.848 160.956 36.912C162.564 35.952 164.196 35.472 165.852 35.472C167.412 35.472 168.612 36.012 169.452 37.092C170.316 38.148 170.748 39.804 170.748 42.06C170.748 44.052 170.46 46.752 169.884 50.16L173.412 49.98C174.924 49.908 176.22 49.788 177.3 49.62C177.732 46.98 178.392 44.508 179.28 42.204C180.168 39.9 181.272 38.028 182.592 36.588C183.912 35.148 185.388 34.428 187.02 34.428C188.22 34.428 189.168 34.908 189.864 35.868C190.56 36.804 190.908 38.04 190.908 39.576C190.908 45.528 187.872 49.656 181.8 51.96C181.728 52.92 181.692 53.916 181.692 54.948C181.692 57.468 182.004 59.256 182.628 60.312C183.252 61.368 184.128 61.896 185.256 61.896C186.24 61.896 187.14 61.644 187.956 61.14C188.772 60.612 189.696 59.724 190.728 58.476C191.016 58.14 191.34 57.972 191.7 57.972ZM186.84 37.56C186.312 37.56 185.748 38.04 185.148 39C184.572 39.96 184.02 41.268 183.492 42.924C182.964 44.58 182.544 46.392 182.232 48.36C184.152 47.568 185.568 46.44 186.48 44.976C187.392 43.512 187.848 41.628 187.848 39.324C187.848 38.772 187.752 38.34 187.56 38.028C187.368 37.716 187.128 37.56 186.84 37.56ZM210.525 57.972C210.837 57.972 211.077 58.116 211.245 58.404C211.437 58.692 211.533 59.088 211.533 59.592C211.533 60.552 211.305 61.296 210.849 61.824C209.961 62.904 208.701 63.9 207.069 64.812C205.461 65.724 203.733 66.18 201.885 66.18C199.365 66.18 197.409 65.496 196.017 64.128C194.625 62.76 193.929 60.888 193.929 58.512C193.929 56.856 194.277 55.32 194.973 53.904C195.669 52.464 196.629 51.324 197.853 50.484C199.101 49.644 200.505 49.224 202.065 49.224C203.457 49.224 204.573 49.644 205.413 50.484C206.253 51.3 206.673 52.416 206.673 53.832C206.673 55.488 206.073 56.916 204.873 58.116C203.697 59.292 201.693 60.228 198.861 60.924C199.461 62.028 200.601 62.58 202.281 62.58C203.361 62.58 204.585 62.208 205.953 61.464C207.345 60.696 208.545 59.7 209.553 58.476C209.841 58.14 210.165 57.972 210.525 57.972ZM201.453 52.752C200.565 52.752 199.809 53.268 199.185 54.3C198.585 55.332 198.285 56.58 198.285 58.044V58.116C199.701 57.78 200.817 57.276 201.633 56.604C202.449 55.932 202.857 55.152 202.857 54.264C202.857 53.808 202.725 53.448 202.461 53.184C202.221 52.896 201.885 52.752 201.453 52.752ZM211.158 66.18C210.246 66.18 209.598 65.7 209.214 64.74C208.854 63.78 208.674 62.244 208.674 60.132C208.674 57.012 209.118 54.048 210.006 51.24C210.222 50.544 210.57 50.04 211.05 49.728C211.554 49.392 212.25 49.224 213.138 49.224C213.618 49.224 213.954 49.284 214.146 49.404C214.338 49.524 214.434 49.752 214.434 50.088C214.434 50.472 214.254 51.336 213.894 52.68C213.654 53.64 213.462 54.48 213.318 55.2C213.174 55.92 213.054 56.808 212.958 57.864C213.75 55.8 214.638 54.12 215.622 52.824C216.606 51.528 217.566 50.604 218.502 50.052C219.462 49.5 220.338 49.224 221.13 49.224C222.69 49.224 223.47 50.004 223.47 51.564C223.47 51.876 223.362 52.632 223.146 53.832C222.954 54.792 222.858 55.392 222.858 55.632C222.858 56.472 223.158 56.892 223.758 56.892C224.43 56.892 225.294 56.364 226.35 55.308C226.662 54.996 226.986 54.84 227.322 54.84C227.634 54.84 227.874 54.984 228.042 55.272C228.234 55.536 228.33 55.896 228.33 56.352C228.33 57.24 228.09 57.936 227.61 58.44C226.938 59.136 226.146 59.736 225.234 60.24C224.346 60.72 223.398 60.96 222.39 60.96C221.118 60.96 220.146 60.636 219.474 59.988C218.826 59.34 218.502 58.464 218.502 57.36C218.502 57 218.538 56.64 218.61 56.28C218.658 55.8 218.682 55.476 218.682 55.308C218.682 54.924 218.55 54.732 218.286 54.732C217.926 54.732 217.446 55.14 216.846 55.956C216.27 56.748 215.694 57.804 215.118 59.124C214.542 60.444 214.074 61.836 213.714 63.3C213.45 64.428 213.138 65.196 212.778 65.604C212.442 65.988 211.902 66.18 211.158 66.18ZM231.069 66.18C229.653 66.18 228.441 65.832 227.433 65.136C226.449 64.416 225.705 63.48 225.201 62.328C224.697 61.176 224.445 59.94 224.445 58.62C224.445 56.796 224.781 55.176 225.453 53.76C226.149 52.32 227.085 51.204 228.261 50.412C229.437 49.596 230.757 49.188 232.221 49.188C233.637 49.188 234.849 49.548 235.857 50.268C236.865 50.964 237.621 51.888 238.125 53.04C238.629 54.192 238.881 55.428 238.881 56.748C238.881 58.572 238.533 60.204 237.837 61.644C237.141 63.06 236.193 64.176 234.993 64.992C233.817 65.784 232.509 66.18 231.069 66.18ZM231.465 62.292C232.281 62.292 232.965 61.848 233.517 60.96C234.093 60.072 234.381 58.776 234.381 57.072C234.381 55.752 234.141 54.756 233.661 54.084C233.181 53.412 232.605 53.076 231.933 53.076C231.069 53.076 230.349 53.52 229.773 54.408C229.221 55.272 228.945 56.568 228.945 58.296C228.945 59.664 229.185 60.672 229.665 61.32C230.145 61.968 230.745 62.292 231.465 62.292Z" fill="#FFFFF0"/>
<path d="M48.1942 55.3342C48.1942 70.8689 41.1689 70.3973 31.8452 70.3973C22.5215 70.3973 14.4301 70.8689 14.4301 55.3342C14.4301 39.7994 21.9884 27.2061 31.3121 27.2061C40.6358 27.2061 48.1942 39.7994 48.1942 55.3342Z" fill="black"/>
<path d="M29.4279 40.2827C29.4279 43.1403 28.3144 45.8808 26.3325 47.9014C24.3505 49.922 21.6624 51.0572 18.8595 51.0572C16.0566 51.0572 13.3685 49.922 11.3865 47.9014C9.40459 45.8808 8.29114 43.1403 8.29114 40.2827C8.29114 37.4252 9.40459 34.6847 11.3865 32.6641C13.3685 30.6435 16.0566 29.5083 18.8595 29.5083C21.6624 29.5083 24.3505 30.6435 26.3325 32.6641C28.3144 34.6847 29.4279 37.4252 29.4279 40.2827Z" fill="black"/>
<path d="M57.053 40.2359C57.053 41.6508 56.7797 43.0519 56.2486 44.3591C55.7175 45.6663 54.939 46.854 53.9576 47.8546C52.9763 48.8551 51.8112 49.6487 50.529 50.1902C49.2468 50.7316 47.8725 51.0103 46.4847 51.0103C45.0968 51.0103 43.7226 50.7316 42.4403 50.1902C41.1581 49.6487 39.9931 48.8551 39.0117 47.8546C38.0304 46.854 37.2519 45.6663 36.7208 44.3591C36.1897 43.0519 35.9163 41.6508 35.9163 40.2359C35.9163 37.3783 37.0298 34.6378 39.0117 32.6172C40.9937 30.5966 43.6818 29.4614 46.4847 29.4614C49.2876 29.4614 51.9757 30.5966 53.9576 32.6172C55.9396 34.6378 57.053 37.3783 57.053 40.2359Z" fill="black"/>
<path d="M42.3865 35.7188C42.3865 38.5763 41.2731 41.3169 39.2911 43.3375C37.3091 45.3581 34.621 46.4932 31.8181 46.4932C29.0152 46.4932 26.3271 45.3581 24.3452 43.3375C22.3632 41.3169 21.2498 38.5763 21.2498 35.7188C21.2498 32.8612 22.3632 30.1207 24.3452 28.1001C26.3271 26.0795 29.0152 24.9443 31.8181 24.9443C34.621 24.9443 37.3091 26.0795 39.2911 28.1001C41.2731 30.1207 42.3865 32.8612 42.3865 35.7188Z" fill="black"/>
<path d="M46.2539 54.3128C46.2539 67.7762 40.1068 67.3675 31.9486 67.3675C23.7904 67.3675 16.7103 67.7762 16.7103 54.3128C16.7103 40.8493 23.3239 29.9351 31.4821 29.9351C39.6404 29.9351 46.2539 40.8493 46.2539 54.3128Z" fill="white"/>
<path d="M29.8334 41.2675C29.8334 43.7441 28.8591 46.1192 27.1249 47.8704C25.3907 49.6216 23.0386 50.6054 20.5861 50.6054C18.1335 50.6054 15.7814 49.6216 14.0472 47.8704C12.313 46.1192 11.3388 43.7441 11.3388 41.2675C11.3388 38.791 12.313 36.4159 14.0472 34.6647C15.7814 32.9135 18.1335 31.9297 20.5861 31.9297C23.0386 31.9297 25.3907 32.9135 27.1249 34.6647C28.8591 36.4159 29.8334 38.791 29.8334 41.2675Z" fill="white"/>
<path d="M54.0054 41.227C54.0054 42.4533 53.7662 43.6675 53.3015 44.8005C52.8368 45.9334 52.1556 46.9628 51.297 47.8299C50.4383 48.697 49.4188 49.3848 48.2969 49.8541C47.175 50.3233 45.9725 50.5649 44.7581 50.5649C43.5437 50.5649 42.3413 50.3233 41.2193 49.8541C40.0974 49.3848 39.078 48.697 38.2193 47.8299C37.3606 46.9628 36.6794 45.9334 36.2147 44.8005C35.75 43.6675 35.5108 42.4533 35.5108 41.227C35.5108 38.7505 36.4851 36.3753 38.2193 34.6242C39.9535 32.873 42.3056 31.8892 44.7581 31.8892C47.2107 31.8892 49.5627 32.873 51.297 34.6242C53.0312 36.3753 54.0054 38.7505 54.0054 41.227Z" fill="white"/>
<path d="M41.1722 37.3125C41.1722 39.789 40.1979 42.1641 38.4637 43.9153C36.7295 45.6665 34.3774 46.6503 31.9249 46.6503C29.4723 46.6503 27.1203 45.6665 25.386 43.9153C23.6518 42.1641 22.6776 39.789 22.6776 37.3125C22.6776 34.8359 23.6518 32.4608 25.386 30.7096C27.1203 28.9584 29.4723 27.9746 31.9249 27.9746C34.3774 27.9746 36.7295 28.9584 38.4637 30.7096C40.1979 32.4608 41.1722 34.8359 41.1722 37.3125Z" fill="white"/>
<path d="M37.7862 48.9943C38.5097 49.5472 35.2545 54.4458 30.519 59.9384C25.7835 65.4312 21.9239 69.9782 20.6316 68.8803C19.0916 67.9689 23.1526 63.4261 27.8987 57.9363C32.6421 52.4497 37.0626 48.4415 37.7862 48.9943Z" fill="black"/>
<path d="M40.6232 46.6847C42.7431 44.1171 44.6006 41.14 44.7719 40.0353C44.9432 38.9305 43.3635 40.1164 41.2435 42.684C39.1235 45.2516 37.2661 48.2286 37.0948 49.3334C36.9235 50.4382 38.5032 49.2523 40.6232 46.6847Z" fill="black"/>
<path d="M38.6514 44.9161C40.7714 42.3485 42.6288 39.3715 42.8001 38.2667C42.9714 37.1619 41.3917 38.3478 39.2717 40.9154C37.1517 43.483 35.2943 46.4601 35.123 47.5648C34.9517 48.6696 36.5314 47.4837 38.6514 44.9161Z" fill="black"/>
<path d="M42.6067 48.2335C44.7266 45.6659 46.5841 42.6889 46.7554 41.5841C46.9267 40.4793 45.347 41.6652 43.227 44.2328C41.107 46.8004 39.2496 49.7774 39.0783 50.8822C38.907 51.987 40.4867 50.8011 42.6067 48.2335Z" fill="black"/>
<path d="M23.9718 47.7004C24.67 47.1147 28.7789 51.3236 33.1529 57.0983C37.527 62.8731 41.1608 67.5947 39.8055 68.6173C38.5799 69.9204 34.9933 65.0039 30.6244 59.2194C26.2581 53.4383 23.2736 48.2861 23.9718 47.7004Z" fill="black"/>
<path d="M24.9617 42.3602C23.0058 39.3357 19.9716 37.7154 18.1845 38.7411C16.3975 39.7667 16.5344 43.05 18.4902 46.0745C20.4461 49.099 23.4803 50.7193 25.2673 49.6936C27.0544 48.668 26.9175 45.3847 24.9617 42.3602Z" fill="black"/>
<path d="M25.1937 44.8779C23.8272 41.9867 21.1604 39.3203 19.2373 38.9223C17.3141 38.5243 16.8628 40.5454 18.2293 43.4365C19.5958 46.3276 22.2626 48.994 24.1858 49.3921C26.1089 49.7901 26.5602 47.769 25.1937 44.8779Z" fill="white"/>
<path d="M24.8696 45.8102C23.4172 43.0085 20.8535 40.0283 19.1435 39.1538C17.4334 38.2793 17.2246 39.8416 18.677 42.6433C20.1295 45.4451 22.6931 48.4252 24.4032 49.2997C26.1132 50.1742 26.3221 48.6119 24.8696 45.8102Z" fill="black"/>
<path d="M24.8228 47.0986C23.8867 44.7994 21.7595 41.6331 20.0716 40.0263C18.3836 38.4195 17.7741 38.9808 18.7102 41.2799C19.6462 43.5791 21.7734 46.7454 23.4614 48.3522C25.1494 49.9589 25.7589 49.3977 24.8228 47.0986Z" fill="white"/>
</svg>
